<?xml version="1.0" standalone="no"?>
<!DOCTYPE svg PUBLIC "-//W3C//DTD SVG 20010904//EN"
 "http://www.w3.org/TR/2001/REC-SVG-20010904/DTD/svg10.dtd">
<svg version="1.0" xmlns="http://www.w3.org/2000/svg"
 width="500.000000pt" height="500.000000pt" viewBox="0 0 500.000000 500.000000"
 preserveAspectRatio="xMidYMid meet">
<metadata>
Created by potrace 1.11, written by Peter Selinger 2001-2013
</metadata>
<g transform="translate(0.000000,500.000000) scale(0.100000,-0.100000)"
fill="#000000" stroke="none">
<path d="M4273 4257 c-25 -17 -31 -27 -26 -44 4 -17 1 -23 -11 -23 -9 0 -30
-10 -46 -22 l-29 -21 29 -37 c27 -34 28 -38 13 -53 -15 -14 -11 -21 37 -84 79
-102 80 -104 9 -29 l-65 69 -38 -24 c-41 -26 -41 -20 -21 -174 l7 -50 -47 48
c-25 26 -49 47 -53 47 -4 -1 -23 -14 -41 -30 l-35 -30 25 -27 c14 -16 45 -55
69 -88 23 -33 54 -72 68 -87 14 -15 24 -30 21 -32 -2 -3 -33 -2 -67 1 -35 3
-58 9 -52 13 9 5 1 24 -24 64 -20 31 -36 69 -36 85 0 42 -9 43 -51 10 -38 -30
-39 -33 -39 -92 l0 -60 -25 23 -24 23 -36 -27 c-19 -15 -35 -31 -35 -36 0 -5
13 -24 28 -42 16 -18 49 -60 73 -93 41 -55 44 -61 30 -76 -9 -9 -31 -35 -49
-58 -25 -30 -40 -41 -60 -40 -24 0 -25 1 -7 8 11 5 23 7 27 5 4 -3 9 0 13 6 4
6 -5 10 -20 10 -25 0 -26 3 -20 27 3 15 10 30 13 33 33 25 34 40 7 76 -25 33
-26 38 -12 46 15 8 14 12 -8 34 -28 28 -39 25 -109 -29 -43 -34 -66 -79 -66
-131 0 -49 13 -79 57 -127 26 -29 31 -39 16 -31 -48 26 -110 12 -167 -39 l-37
-32 -34 33 -33 32 -31 -23 c-17 -12 -31 -26 -31 -31 0 -9 76 -112 138 -186 26
-31 50 -51 58 -48 7 3 29 -1 47 -9 31 -13 35 -12 58 8 35 30 65 77 73 111 l7
30 -21 -25 -22 -24 21 32 c13 19 21 47 21 75 l0 43 56 -3 c53 -4 114 12 114
29 0 4 9 10 19 14 10 3 21 16 24 28 2 12 8 31 12 41 6 13 5 17 -3 12 -7 -4 -6
7 4 29 8 20 12 40 9 45 -9 14 29 12 42 -1 17 -17 49 -3 34 15 -8 10 -6 17 8
30 11 10 17 25 14 34 -4 9 -2 13 4 9 5 -3 22 1 37 9 16 7 34 14 40 14 19 0 62
63 47 68 -9 3 -8 10 3 27 14 21 14 23 -7 29 -11 3 -18 8 -15 11 3 4 20 -1 37
-10 26 -13 40 -9 29 9 -2 2 6 14 17 26 12 13 18 33 17 51 -2 19 2 28 8 24 5
-3 10 -3 10 2 0 4 12 16 26 27 21 14 28 16 34 6 11 -17 40 -5 40 16 0 10 7 26
16 36 14 14 14 20 4 33 -10 13 -9 15 8 15 12 0 24 -4 27 -10 10 -15 19 -12 34
13 10 17 11 19 0 10 -7 -7 -17 -13 -22 -13 -5 0 5 11 21 24 23 21 28 31 24 57
-3 23 -1 30 7 24 7 -4 18 1 26 11 8 11 26 19 42 19 15 0 28 5 28 10 0 6 9 22
19 37 l18 28 -40 47 c-22 27 -71 79 -109 116 l-69 68 -41 -38 -41 -38 5 35 c3
21 -1 42 -9 52 -12 15 -15 14 -45 -5z"/>
<path d="M4870 4046 c0 -2 8 -10 18 -17 15 -13 16 -12 3 4 -13 16 -21 21 -21
13z"/>
<path d="M4945 3970 c10 -11 20 -20 23 -20 3 0 -3 9 -13 20 -10 11 -20 20 -23
20 -3 0 3 -9 13 -20z"/>
<path d="M4897 3816 c-104 -112 -151 -166 -145 -166 8 0 250 261 246 265 -2 3
-48 -42 -101 -99z"/>
<path d="M4679 3583 l-24 -28 28 24 c25 23 32 31 24 31 -2 0 -14 -12 -28 -27z"/>
<path d="M4599 3493 c-13 -16 -12 -17 4 -4 16 13 21 21 13 21 -2 0 -10 -8 -17
-17z"/>
<path d="M1886 3480 c-101 -18 -229 -100 -297 -190 -18 -25 -34 -46 -35 -48
-1 -1 -30 26 -65 61 -91 90 -227 158 -333 165 -131 8 -275 -54 -373 -160 -70
-77 -100 -152 -109 -269 -8 -101 9 -195 54 -300 l37 -86 251 -239 c137 -131
321 -306 408 -388 l157 -150 43 45 c130 134 795 830 825 864 l36 40 -39 -35
c-22 -20 -36 -28 -33 -18 3 9 11 53 17 98 46 338 -130 592 -427 614 -37 2 -90
1 -117 -4z"/>
<path d="M3229 3033 c-28 -26 -64 -64 -80 -85 l-30 -37 75 -95 c71 -88 90
-126 66 -126 -18 0 -10 -18 21 -49 25 -26 69 -43 69 -27 0 2 3 12 7 22 5 13 3
15 -8 9 -10 -7 -9 -1 4 18 23 35 22 74 -4 117 -19 31 -19 33 -3 19 20 -17 50
-18 98 -4 19 5 31 4 36 -5 6 -9 9 -9 16 1 5 8 9 19 10 24 1 6 5 18 9 27 5 13
-20 45 -101 128 -59 60 -113 110 -121 110 -8 0 -37 -21 -64 -47z"/>
<path d="M3017 2780 c-41 -12 -94 -56 -113 -92 -19 -38 -21 -116 -4 -149 16
-29 101 -139 109 -140 36 -7 123 -3 147 7 31 13 64 44 48 44 -5 0 -1 5 8 10
25 15 50 70 38 85 -7 8 -7 21 -1 36 5 13 10 18 10 10 1 -8 3 -12 6 -9 10 10
-53 133 -82 161 -45 42 -105 55 -166 37z m113 -224 c0 -2 -8 -10 -17 -17 -16
-13 -17 -12 -4 4 13 16 21 21 21 13z m100 -40 c0 -2 -8 -10 -17 -17 -16 -13
-17 -12 -4 4 13 16 21 21 21 13z"/>
<path d="M2765 2536 l-29 -27 12 -76 c7 -42 11 -77 10 -78 -2 -1 -36 2 -76 8
-72 10 -74 10 -100 -16 l-26 -27 25 -27 c14 -16 56 -67 92 -115 56 -73 72 -87
95 -87 15 1 36 -1 46 -3 10 -1 21 4 24 12 5 13 3 13 -14 0 -12 -9 -10 -4 5 13
l25 27 -30 33 c-16 17 -22 27 -15 20 12 -10 17 -8 25 8 11 20 22 28 98 65 31
15 39 16 53 4 11 -9 19 -10 26 -3 8 8 7 13 0 17 -7 5 -7 13 2 26 11 18 0 32
-104 136 l-116 116 -28 -26z"/>
<path d="M572 2119 c-78 -83 -151 -168 -163 -190 -49 -98 -32 -198 46 -266
100 -86 122 -102 150 -109 17 -4 51 -22 78 -41 29 -22 47 -30 47 -21 1 34 19
-26 41 -135 20 -102 26 -118 41 -114 9 3 19 0 21 -6 2 -6 20 -12 40 -13 27 -2
37 1 37 11 0 8 6 15 14 15 26 0 38 85 30 216 -8 157 -3 188 36 204 26 11 36 9
83 -14 63 -31 74 -32 56 -8 -7 9 -1 6 13 -7 15 -13 34 -21 42 -18 9 4 18 2 21
-3 12 -20 45 -9 69 23 42 55 36 72 -61 167 -278 271 -478 460 -488 460 -6 0
-75 -68 -153 -151z m162 -264 c-4 -8 -2 -15 4 -15 5 0 12 7 16 15 3 8 11 15
18 15 6 0 -3 -16 -22 -35 -39 -40 -57 -37 -35 6 16 30 29 40 19 14z"/>
<path d="M2480 2211 c-82 -25 -125 -74 -136 -152 -8 -58 9 -96 79 -180 l56
-65 61 7 c56 6 143 49 138 68 -1 3 4 17 12 31 8 14 15 36 17 50 l3 25 -15 -27
c-21 -37 -30 -36 -10 2 8 16 15 44 16 62 1 31 1 32 9 8 6 -18 8 -20 9 -7 1 21
-56 113 -87 140 -22 20 -87 46 -112 46 -8 -1 -26 -4 -40 -8z m90 -236 c-7 -8
-17 -15 -23 -15 -6 0 -2 7 9 15 25 19 30 19 14 0z"/>
<path d="M2224 1976 c-59 -33 -93 -93 -94 -164 0 -54 20 -92 83 -159 48 -51
52 -53 103 -53 35 0 69 8 99 22 38 19 48 30 64 73 10 27 15 52 10 53 -5 2 -9
11 -9 21 0 9 -13 29 -28 44 l-28 27 -23 -40 c-12 -22 -35 -47 -51 -55 -31 -16
-54 -20 -47 -7 3 4 1 16 -3 27 -7 21 6 62 26 80 25 22 21 43 -15 91 -39 52
-54 59 -87 40z"/>
<path d="M80 1756 c0 -2 8 -10 18 -17 15 -13 16 -12 3 4 -13 16 -21 21 -21 13z"/>
<path d="M1995 1743 c-18 -17 -17 -66 1 -151 l7 -33 -64 7 c-101 10 -114 10
-112 -3 2 -7 -2 -12 -8 -10 -6 1 -13 -9 -15 -23 -3 -20 6 -35 37 -65 23 -21
66 -69 96 -107 30 -37 60 -68 65 -68 5 0 6 5 3 10 -3 6 -2 10 4 10 5 0 12 -4
15 -8 3 -5 19 -9 36 -10 28 -1 30 1 18 16 -8 10 -9 13 -1 9 9 -6 9 0 3 22 -5
17 -12 36 -16 42 -4 7 -3 9 3 6 6 -4 13 4 17 16 6 25 100 84 124 79 8 -2 24 5
35 15 20 17 21 17 8 0 -15 -19 -7 -37 10 -20 23 23 -6 66 -121 173 -65 60
-120 110 -123 110 -3 0 -13 -8 -22 -17z"/>
<path d="M1696 1415 c-51 -18 -92 -59 -112 -112 -15 -38 -15 -52 -5 -98 11
-48 20 -61 74 -109 34 -30 59 -58 55 -61 -14 -14 -53 5 -70 32 -9 15 -44 58
-78 95 l-61 68 -27 -25 c-25 -23 -26 -29 -24 -111 l3 -87 -46 38 c-38 31 -48
35 -61 24 -44 -36 -40 -45 72 -152 58 -56 113 -106 121 -110 20 -12 63 19 63
46 1 16 13 28 48 44 26 12 59 24 74 27 31 7 71 57 62 80 -3 9 -10 13 -15 10
-5 -3 -9 2 -9 10 0 11 9 16 29 16 44 0 77 16 117 56 29 28 38 46 42 83 2 25 9
52 15 58 7 9 -3 29 -33 68 -55 72 -92 102 -138 115 -46 12 -48 12 -96 -5z"/>
<path d="M980 1252 c-59 -62 -83 -95 -41 -57 31 28 96 105 89 105 -1 0 -23
-21 -48 -48z"/>
<path d="M1595 820 c-3 -5 1 -10 10 -10 9 0 13 5 10 10 -3 6 -8 10 -10 10 -2
0 -7 -4 -10 -10z"/>
<path d="M1315 610 c10 -11 20 -20 23 -20 3 0 -3 9 -13 20 -10 11 -20 20 -23
20 -3 0 3 -9 13 -20z"/>
</g>
</svg>
