<svg id="Layer_1" xmlns="http://www.w3.org/2000/svg" viewBox="0 0 190 190"><style>.st0{fill:#fff}.st1,.st2{fill:#505a5a}.st2{opacity:.5;enable-background:new}.st3{fill:#ff1900}path.st0:hover~.st3{fill:green}</style><path class="st0" d="M0 0h190v190H0V0z"/><path class="st1" d="M95 5c49.6 0 90 40.4 90 90s-40.4 90-90 90S5 144.6 5 95 45.4 5 95 5m0-5C42.5 0 0 42.5 0 95s42.5 95 95 95 95-42.5 95-95S147.5 0 95 0z"/><path class="st2" d="M116 58v3l-3 9-4 3-4 3-7 4-8-1-7-6-2-7h-5l-1-7v-1H28v59h27.9l-.9-6 5-17 11-8 11-1 5 1 8 9 11-10h11l10 5s4 7 5 8 3 9 3 10v8l-39.5 1H164V58h-48z"/><path class="st1" d="M44.7 58.1c0 1.7 1.4 3 3 3h26.9l-.4-4.4 2.5-1.4h2.6v-.2H47.7c-1.7 0-3 1.3-3 3zM155.9 43h-45.5l.7 2.1-.3 4h45.1c3.3 0 6.1 2.7 6.1 6h-51.7v.3l4.6.3 1.3 1.6-.4 3.9H162v60.4c0 3.4-2.7 6.1-6.1 6.1H35.1c-3.4 0-6.1-2.7-6.1-6.1v-1.3h114.8c1.7 0 3-1.4 3-3 0-1.7-1.4-3-3-3H29v-59c0-3.4 2.7-6.1 6.1-6.1h44.4l.6-6h-45C28.4 43 23 48.4 23 55.1v66.3c0 6.7 5.4 12.1 12.1 12.1h41.1L72.1 146c-3.9 1-6.8 4.6-6.8 8.8v3h-9.1c-1.7 0-3 1.4-3 3 0 1.7 1.4 3 3 3h78.6c1.7 0 3-1.4 3-3 0-1.7-1.4-3-3-3h-9.1v-3c0-4.2-2.9-7.8-6.8-8.8l-4.1-12.4h41.1c6.7 0 12.1-5.4 12.1-12.1V55.1c0-6.7-5.4-12.1-12.1-12.1zm-73.3 90.6h25.9l4 12.1h-34l4.1-12.1zm34 18.1c1.7 0 3 1.4 3 3v3H71.3v-3c0-1.7 1.4-3 3-3h42.3zM38.4 55.1H37c-1.7 0-3 1.4-3 3 0 1.7 1.4 3 3 3h1.4c1.7 0 3-1.4 3-3 0-1.7-1.3-3-3-3zm115.4 59.1h-1.3c-1.7 0-3 1.4-3 3 0 1.7 1.4 3 3 3h1.3c1.7 0 3-1.4 3-3 0-1.7-1.3-3-3-3z"/><path class="st3" d="M73.4 64c.1 1.5 1.1 2.8 2.5 3.3v6.9c0 .9.7 1.7 1.7 1.7.9 0 1.7-.7 1.7-1.7v-6.7h.4c.6 5 3.5 9.4 8 11.8 2.4 1.3 5 2 7.6 2s5.2-.7 7.6-2c2.3-1.2 4.1-3 5.5-5.1 1.1-.1 2.2-.4 3.2-1 4.8-2.6 5.4-9 5.4-9.3l.6-7.4c.1-1.1-.3-2.1-1-2.9-.7-.8-1.7-1.2-2.8-1.2h-2l.2-3.6.3-4.4c.2-3.4-.9-6.7-3.3-9.2-2.3-2.5-5.5-3.9-8.9-3.9h-9.7c-3.4 0-6.6 1.4-8.9 3.9S78 41 78.2 44.4l.4 6.6.1 1.4h-2.1c-1.1 0-2.1.4-2.8 1.2-.7.8-1.1 1.8-1 2.9l.6 7.5zm27.8 12.4c-3.7 2-8.2 2-11.9 0-3.7-2-6.1-5.8-6.4-10L82 52.6c9.4-.9 14.5-4.3 17-6.8.7.8 1.6 1.5 2.9 2.1 1.3.7 3.6 1.4 6.7 2.2l-1.1 16.3c-.1 1.6-.5 3.1-1.2 4.5-1.4-.2-3.1-.7-4.9-1.6.1-.3.1-.6.1-.9 0-2.3-1.9-4.2-4.2-4.2-2.3 0-4.2 1.9-4.2 4.2 0 2.3 1.9 4.2 4.2 4.2.8 0 1.5-.2 2.1-.6 1.7.9 3.3 1.5 4.8 1.9-.8 1-1.8 1.9-3 2.5zm-3.8-7.1c-.5 0-.8-.4-.8-.8s.4-.8.8-.8c.5 0 .8.4.8.8s-.3.8-.8.8zm12.8.9c.3-.9.5-1.8.6-2.7h1.7c-.5 1-1.2 2-2.3 2.7zm3.6-14.4c.2 0 .3.1.3.2.1.1.1.2.1.4l-.6 7.4c0 .2-.2.4-.5.4H111l.5-8.3h2.3v-.1zm-7.2-18.2c1.7 1.8 2.6 4.2 2.4 6.7l-.2 2.5c-3.1-.8-4.6-1.4-5.4-1.8-1.8-.9-2.2-1.7-2.2-2l2.7-7.3c1.1.4 1.9 1.1 2.7 1.9zm-22.7 0c1.7-1.8 4-2.8 6.5-2.8h10.3l-2.6 6.9c-.4.7-4.2 6.4-16.4 7.5l-.3-5c-.1-2.4.8-4.8 2.5-6.6zM76.2 56c.1-.1.2-.2.3-.2h2.3l.5 8.3h-2.2c-.2 0-.4-.2-.5-.4l-.6-7.4c.1-.1.1-.3.2-.3zm60.9 56.2l-1.6-8.9c-.9-5-3.3-9.5-6.9-13.1-3.5-3.5-8-5.9-12.9-6.8-1.5-.3-3.1-.4-4.6-.4h-4.9c-.4 0-.9.2-1.2.5l-9.8 9.8-9.8-9.8c-.3-.3-.7-.5-1.2-.5h-4.9c-1.5 0-3.1.1-4.6.4-4.9.9-9.4 3.3-12.9 6.8-3.6 3.6-6 8.1-6.9 13.1l-1.6 8.9c-.1.5 0 1 .4 1.4s.8.6 1.3.6h80.4c.5 0 1-.2 1.3-.6.3-.4.5-.9.4-1.4zm-30.2-25.9h4.8l-16.5 16.5-2.4-2.4 3.6-3.6 10.5-10.5zm-23.4 0l9.3 9.3-2.4 2.4-11.7-11.7h4.8zM57 110.9l1.3-6.9c1.5-8.4 8-15.1 16.2-17.1L94 106.4l.1.1c.6.5 1.5.5 2.1 0l.1-.1 19.5-19.5c8.3 1.9 14.7 8.7 16.2 17.1l1.3 6.9H57zm20.6-33.4c-.9 0-1.7.7-1.7 1.7v.7c0 .9.7 1.7 1.7 1.7.9 0 1.7-.7 1.7-1.7v-.7c-.1-1-.8-1.7-1.7-1.7z"/></svg>