<?xml version="1.0" encoding="utf-8"?>
<!-- Generator: Adobe Illustrator 22.0.1, SVG Export Plug-In . SVG Version: 6.00 Build 0)  -->
<svg version="1.1" id="Layer_1" xmlns="http://www.w3.org/2000/svg" xmlns:xlink="http://www.w3.org/1999/xlink" x="0px" y="0px"
	 viewBox="0 0 190 190" style="enable-background:new 0 0 190 190;" xml:space="preserve">
<style type="text/css">
	.st0{fill:#FFFFFF;}
	.st1{fill:#505A5A;}
	.st2{opacity:0.5;fill:#505A5A;enable-background:new    ;}
	.st3{fill:#FF1900;}
	path.st0:hover ~ .st3 {
		fill: green;
	}
</style>
<path class="st0" d="M0,0h190v190H0V0z"/>
<path class="st1" d="M95,5c49.6,0,90,40.4,90,90s-40.4,90-90,90S5,144.6,5,95S45.4,5,95,5 M95,0C42.5,0,0,42.5,0,95s42.5,95,95,95
	s95-42.5,95-95S147.5,0,95,0L95,0z"/>
<path class="st2" d="M116,58v3l-3,9l-4,3l-4,3l-7,4l-8-1l-7-6l-2-7h-5l-1-7v-1H28v59h27.9l-0.9-6l5-17l11-8l11-1l5,1l8,9l11-10h11
	l10,5c0,0,4,7,5,8s3,9,3,10s0,8,0,8l-39.5,1H164V58H116z"/>
<path class="st1" d="M44.7,58.1c0,1.7,1.4,3,3,3h26.9l-0.4-4.4l2.5-1.4h2.6v-0.2H47.7C46,55.1,44.7,56.4,44.7,58.1z M155.9,43h-45.5
	l0.7,2.1l-0.3,4h45.1c3.3,0,6.1,2.7,6.1,6h-51.7v0.3l4.6,0.3l1.3,1.6l-0.4,3.9H162v60.4c0,3.4-2.7,6.1-6.1,6.1h-45.3H80.4H35.1
	c-3.4,0-6.1-2.7-6.1-6.1v-1.3h114.8c1.7,0,3-1.4,3-3c0-1.7-1.4-3-3-3H29v-59c0-3.4,2.7-6.1,6.1-6.1h44.4l0.6-6h-45
	C28.4,43,23,48.4,23,55.1v66.3c0,6.7,5.4,12.1,12.1,12.1h41.1L72.1,146c-3.9,1-6.8,4.6-6.8,8.8v3h-9.1c-1.7,0-3,1.4-3,3
	c0,1.7,1.4,3,3,3H70l0,0h51h13.8c1.7,0,3-1.4,3-3c0-1.7-1.4-3-3-3h-9.1v-3c0-4.2-2.9-7.8-6.8-8.8l-4.1-12.4h41.1
	c6.7,0,12.1-5.4,12.1-12.1V55.1C168,48.4,162.6,43,155.9,43z M82.6,133.6h25.9l4,12.1h-34L82.6,133.6z M116.6,151.7c1.7,0,3,1.4,3,3
	v3H71.3v-3c0-1.7,1.4-3,3-3H116.6z M38.4,55.1H37c-1.7,0-3,1.4-3,3c0,1.7,1.4,3,3,3h1.4c1.7,0,3-1.4,3-3
	C41.4,56.4,40.1,55.1,38.4,55.1z M153.8,114.2h-1.3c-1.7,0-3,1.4-3,3c0,1.7,1.4,3,3,3h1.3c1.7,0,3-1.4,3-3
	C156.8,115.5,155.5,114.2,153.8,114.2z"/>
<path class="st3" d="M73.4,64c0.1,1.5,1.1,2.8,2.5,3.3v6.9c0,0.9,0.7,1.7,1.7,1.7c0.9,0,1.7-0.7,1.7-1.7v-6.7h0.4
	c0.6,5,3.5,9.4,8,11.8c2.4,1.3,5,2,7.6,2s5.2-0.7,7.6-2c2.3-1.2,4.1-3,5.5-5.1c1.1-0.1,2.2-0.4,3.2-1c4.8-2.6,5.4-9,5.4-9.3l0,0
	l0.6-7.4c0.1-1.1-0.3-2.1-1-2.9c-0.7-0.8-1.7-1.2-2.8-1.2h-2l0.2-3.6l0.3-4.4c0.2-3.4-0.9-6.7-3.3-9.2c-2.3-2.5-5.5-3.9-8.9-3.9
	h-9.7c-3.4,0-6.6,1.4-8.9,3.9S78,41,78.2,44.4l0.4,6.6l0.1,1.4h-2.1c-1.1,0-2.1,0.4-2.8,1.2c-0.7,0.8-1.1,1.8-1,2.9L73.4,64z
	 M101.2,76.4c-3.7,2-8.2,2-11.9,0c-3.7-2-6.1-5.8-6.4-10L82,52.6c9.4-0.9,14.5-4.3,17-6.8c0.7,0.8,1.6,1.5,2.9,2.1
	c1.3,0.7,3.6,1.4,6.7,2.2l-1.1,16.3c-0.1,1.6-0.5,3.1-1.2,4.5c-1.4-0.2-3.1-0.7-4.9-1.6c0.1-0.3,0.1-0.6,0.1-0.9
	c0-2.3-1.9-4.2-4.2-4.2c-2.3,0-4.2,1.9-4.2,4.2c0,2.3,1.9,4.2,4.2,4.2c0.8,0,1.5-0.2,2.1-0.6c1.7,0.9,3.3,1.5,4.8,1.9
	C103.4,74.9,102.4,75.8,101.2,76.4z M97.4,69.3c-0.5,0-0.8-0.4-0.8-0.8s0.4-0.8,0.8-0.8c0.5,0,0.8,0.4,0.8,0.8S97.9,69.3,97.4,69.3z
	 M110.2,70.2c0.3-0.9,0.5-1.8,0.6-2.7h1.7C112,68.5,111.3,69.5,110.2,70.2z M113.8,55.8c0.2,0,0.3,0.1,0.3,0.2
	c0.1,0.1,0.1,0.2,0.1,0.4l-0.6,7.4c0,0.2-0.2,0.4-0.5,0.4H111l0.5-8.3h2.3V55.8z M106.6,37.6c1.7,1.8,2.6,4.2,2.4,6.7l-0.2,2.5
	c-3.1-0.8-4.6-1.4-5.4-1.8c-1.8-0.9-2.2-1.7-2.2-2l0,0l0,0l2.7-7.3C105,36.1,105.8,36.8,106.6,37.6z M83.9,37.6
	c1.7-1.8,4-2.8,6.5-2.8h9.7c0.2,0,0.4,0,0.6,0l-2.6,6.9c-0.4,0.7-4.2,6.4-16.4,7.5l-0.3-5C81.3,41.8,82.2,39.4,83.9,37.6z M76.2,56
	c0.1-0.1,0.2-0.2,0.3-0.2h2.3l0.5,8.3h-2.2c-0.2,0-0.4-0.2-0.5-0.4L76,56.3C76.1,56.2,76.1,56,76.2,56z M137.1,112.2l-1.6-8.9
	c-0.9-5-3.3-9.5-6.9-13.1c-3.5-3.5-8-5.9-12.9-6.8c-1.5-0.3-3.1-0.4-4.6-0.4h-4.9c-0.4,0-0.9,0.2-1.2,0.5l-9.8,9.8l-9.8-9.8
	c-0.3-0.3-0.7-0.5-1.2-0.5h-4.9c-1.5,0-3.1,0.1-4.6,0.4l0,0c-4.9,0.9-9.4,3.3-12.9,6.8c-3.6,3.6-6,8.1-6.9,13.1l-1.6,8.9
	c-0.1,0.5,0,1,0.4,1.4s0.8,0.6,1.3,0.6h80.4c0.5,0,1-0.2,1.3-0.6C137,113.2,137.2,112.7,137.1,112.2z M106.9,86.3h4.2
	c0.2,0,0.4,0,0.6,0l-16.5,16.5l-2.4-2.4l3.6-3.6L106.9,86.3z M83.5,86.3l9.3,9.3L90.4,98L78.7,86.3c0.2,0,0.4,0,0.6,0H83.5z
	 M57,110.9l1.3-6.9c1.5-8.4,8-15.1,16.2-17.1L94,106.4l0.1,0.1c0.6,0.5,1.5,0.5,2.1,0l0.1-0.1l19.5-19.5c8.3,1.9,14.7,8.7,16.2,17.1
	l1.3,6.9H57z M77.6,77.5c-0.9,0-1.7,0.7-1.7,1.7v0.7c0,0.9,0.7,1.7,1.7,1.7c0.9,0,1.7-0.7,1.7-1.7v-0.7
	C79.2,78.2,78.5,77.5,77.6,77.5z"/>
</svg>
