<!-- Generated by IcoMoon.io -->
<svg version="1.1" xmlns="http://www.w3.org/2000/svg" width="1024" height="1024" viewBox="0 0 1024 1024">
<title></title>
<g id="icomoon-ignore">
</g>
<path fill="#000" d="M86.646 984.615c-7.877 0-23.631-7.877-31.508-15.754-15.754-15.754-15.754-47.262 0-63.015l858.585-850.708c15.754-15.754 47.262-15.754 63.015 0s15.754 47.262 0 63.015l-866.462 850.708c-7.877 7.877-15.754 15.754-23.631 15.754z"></path>
<path fill="#000" d="M937.354 984.615c-7.877 0-23.631-7.877-31.508-15.754l-850.708-858.585c-15.754-15.754-15.754-47.262 0-63.015s47.262-15.754 63.015 0l858.585 858.585c15.754 15.754 15.754 47.262 0 63.015-15.754 7.877-23.631 15.754-39.385 15.754z"></path>
</svg>
