<?xml version="1.0" encoding="utf-8"?>
<!-- Svg Vector Icons : http://www.onlinewebfonts.com/icon -->
<!DOCTYPE svg PUBLIC "-//W3C//DTD SVG 1.1//EN" "http://www.w3.org/Graphics/SVG/1.1/DTD/svg11.dtd">
<svg version="1.1" xmlns="http://www.w3.org/2000/svg" xmlns:xlink="http://www.w3.org/1999/xlink" x="0px" y="0px" viewBox="0 0 1000 1000" enable-background="new 0 0 1000 1000" xml:space="preserve">
<metadata> Svg Vector Icons : http://www.onlinewebfonts.com/icon </metadata>
<g><g transform="translate(0.000000,511.000000) scale(0.100000,-0.100000)"><path d="M100,110v-3578.3h4900h4900V110v3578.3H5000H100V110z M8803.9,3077.9c0-17.2-3786.8-3462.2-3803.9-3462.2c-19.3,0-3803.9,3445-3803.9,3462.2c0,4.3,1710.7,8.6,3803.9,8.6C7093.3,3086.5,8803.9,3082.2,8803.9,3077.9z M3235.6,389.4C4194.1-485.3,4989.3-1201,5000-1201c10.7,0,210.6,174.1,444.9,386.8c909.1,827.4,2920.6,2662.8,3376.3,3079.7l477.1,436.3V-81.3v-2785.3H5000H701.8V-83.4v2785.3l393.3-361.1C1312.1,2143.1,2274.9,1264.1,3235.6,389.4z"/></g></g>
</svg>