<?xml version="1.0" encoding="utf-8"?>
<!-- Generator: Adobe Illustrator 22.0.1, SVG Export Plug-In . SVG Version: 6.00 Build 0)  -->
<svg version="1.1" id="Слой_1" xmlns="http://www.w3.org/2000/svg" xmlns:xlink="http://www.w3.org/1999/xlink" x="0px" y="0px"
	 viewBox="0 0 1024 1024" style="enable-background:new 0 0 1024 1024;" xml:space="preserve">
<path d="M979.5,316.2c-25.3-59.9-61.6-113.7-107.8-159.9c-46.2-46.2-100-82.5-159.9-107.8C651.3,22.9,587.1,9.7,520.9,9
	c-2.9-0.8-5.9-0.8-8.8,0c-66.5,0.5-131.1,13.8-191.9,39.5c-59.9,25.3-113.7,61.6-159.9,107.8c-46.2,46.2-82.5,100-107.8,159.9
	C26.3,378.2,13,444.1,13,512c0,67.9,13.3,133.8,39.5,195.8c25.3,59.9,61.6,113.7,107.8,159.9c46.2,46.2,100,82.5,159.9,107.8
	c60.5,25.6,124.7,38.9,190.9,39.5c1.4,0.4,2.9,0.6,4.4,0.6c1.5,0,2.9-0.2,4.3-0.6c66.5-0.5,131.1-13.8,192-39.5
	c59.9-25.3,113.7-61.6,159.9-107.8c46.2-46.2,82.5-100,107.8-159.9c26.2-62,39.5-127.9,39.5-195.8S1005.7,378.2,979.5,316.2z
	 M984.7,495H726.9c-7-165.3-67.5-323.3-172.2-450.4C789.7,63.8,976.2,257.1,984.7,495z M516,972.5C408.7,849,346.4,692.8,339.2,529
	h353.7C685.4,692.8,623.1,848.9,516,972.5z M339.2,495c7.4-163.8,69.7-319.9,176.8-443.5C623.3,175,685.6,331.2,692.8,495H339.2z
	 M477.4,44.6c-48.6,59-87.8,124.6-116.7,195.5c-33.1,81.1-51.8,166.8-55.5,255H47.3C55.8,257.1,242.3,63.8,477.4,44.6z M47.3,529
	h257.8c7,165.3,67.5,323.3,172.2,450.4C242.3,960.2,55.8,766.9,47.3,529z M554.6,979.4c48.6-59,87.8-124.6,116.7-195.5
	c33.1-81.1,51.8-166.8,55.5-255h257.8C976.2,766.9,789.7,960.2,554.6,979.4z"/>
</svg>
