<!-- Generated by IcoMoon.io -->
<svg version="1.1" xmlns="http://www.w3.org/2000/svg" width="1024" height="1024" viewBox="0 0 1024 1024">
<title></title>
<g id="icomoon-ignore">
</g>
<path fill="#000" d="M987.88 428.021h-149.898v-149.898c0-10.836-9.030-19.866-19.866-19.866h-43.344c-10.836 0-19.866 9.030-19.866 19.866v149.898h-149.898c-10.836 0-19.866 9.030-19.866 19.866v43.344c0 10.836 9.030 19.866 19.866 19.866h149.898v149.898c0 10.836 9.030 19.866 19.866 19.866h43.344c10.836 0 19.866-9.030 19.866-19.866v-149.898h149.898c10.836 0 19.866-9.030 19.866-19.866v-43.344c0-10.836-9.030-19.866-19.866-19.866zM484.007 559.859c-30.702-21.672-59.598-54.18-61.404-65.016 0-18.060 1.806-27.090 43.344-59.598 52.374-41.538 83.076-95.718 83.076-153.51 0-52.374-16.254-99.33-43.344-131.838h21.672c3.612 0 9.030-1.806 12.642-3.612l59.598-43.344c7.224-5.418 10.836-14.448 7.224-23.478s-10.836-14.448-19.866-14.448h-265.481c-28.896 0-57.792 5.418-86.688 14.448-95.718 32.508-162.54 115.584-162.54 198.66 0 119.196 92.106 209.496 214.914 211.302-1.806 9.030-3.612 18.060-3.612 27.090 0 18.060 5.418 36.12 14.448 52.374-1.806 0-1.806 0-3.612 0-117.39 0-223.944 57.792-263.675 142.674-10.836 21.672-16.254 45.15-16.254 66.822s5.418 43.344 16.254 61.404c25.284 45.15 79.464 81.27 153.51 99.33 37.926 9.030 79.464 14.448 121.002 14.448 37.926 0 74.046-5.418 108.36-14.448 104.748-30.702 171.57-106.554 171.57-195.048 0-81.27-27.090-131.838-101.136-184.212zM151.704 754.907c0-61.404 79.464-115.584 167.958-115.584h1.806c19.866 0 37.926 3.612 55.986 9.030 5.418 3.612 12.642 9.030 18.060 12.642 41.538 28.896 68.628 46.956 75.852 77.658 1.806 7.224 1.806 14.448 1.806 21.672 0 77.658-57.792 115.584-171.57 115.584-83.076-1.806-149.898-54.18-149.898-121.002zM232.974 169.764c14.448-16.254 32.508-25.284 54.18-25.284h1.806c57.792 1.806 113.778 66.822 124.614 144.48 5.418 43.344-3.612 84.882-25.284 110.166-14.448 16.254-32.508 25.284-54.18 25.284 0 0 0 0 0 0h-1.806c-57.792-1.806-113.778-68.628-124.614-146.286-5.418-45.15 3.612-84.882 25.284-108.36z"></path>
</svg>
