<!-- Generated by IcoMoon.io -->
<svg version="1.1" xmlns="http://www.w3.org/2000/svg" width="1024" height="1024" viewBox="0 0 1024 1024">
<title></title>
<g id="icomoon-ignore">
</g>
<path fill="#000" d="M826.112 0h-628.224c-109.232 0.146-197.742 88.656-197.888 197.874v628.238c0.146 109.232 88.656 197.742 197.874 197.888h628.238c109.261-0.073 197.815-88.627 197.888-197.881v-628.231c-0.146-109.232-88.656-197.742-197.874-197.888zM888.448 114.56h22.4v169.856h-171.136l-0.64-169.216zM512 340.736c142.080 0 171.264 132.864 171.264 171.264 0 94.622-76.706 171.328-171.328 171.328s-171.328-76.706-171.328-171.328c0-38.4 29.312-171.392 171.264-171.392zM911.744 814.336c-0.073 54.166-44 98.048-98.176 98.048h-605.056c-54.176 0-98.103-43.882-98.176-98.041v-416.263h142.208c-13.074 33.832-20.675 72.98-20.736 113.894 0 154.63 125.332 279.962 279.936 279.962s279.936-125.332 279.936-279.936c-0.036-40.971-7.591-80.166-21.36-116.295l141.552 2.247v415.744z"></path>
</svg>
