<?xml version="1.0" encoding="utf-8"?>
<!-- Generator: Adobe Illustrator 22.0.1, SVG Export Plug-In . SVG Version: 6.00 Build 0)  -->
<svg version="1.1" id="Слой_1" xmlns="http://www.w3.org/2000/svg" xmlns:xlink="http://www.w3.org/1999/xlink" x="0px" y="0px"
	 viewBox="0 0 1000 1000" style="enable-background:new 0 0 1000 1000;" xml:space="preserve">
<path d="M547,988.8c115.5-11.9,218.8-60.8,300-141.9c77.9-77.9,124.3-172.8,140.6-286.5c3.3-22.6,3.3-98.2,0-120.8
	C971.3,325.7,924.6,230.8,847,152.9C769.3,75.3,674,28.5,560.4,12.3c-22.6-3.3-98.2-3.3-120.8,0c-94,13.4-178,49.1-247.4,105.3
	C93.4,197.4,31.1,309.3,12.4,439.5c-3.3,22.6-3.3,98.2,0,120.8C28.5,673.9,75.3,769.2,153,846.9C229,922.8,321.8,969.2,431,986.1
	C455.1,989.8,522.4,991.5,547,988.8z M446.3,946.6c-80.2-9.2-161.1-43.1-226.7-94.9c-18-14.2-57.2-53.3-71.3-71.3
	c-50.8-64.6-83.1-140.2-94.4-221.9c-4.2-30.9-4.2-86.5,0-117C82.1,238.3,238.4,82,441.5,53.8c30.5-4.2,86.1-4.2,117,0
	c81.7,11.3,157.3,43.5,221.9,94.4c18,14.2,57.2,53.3,71.4,71.3c52.2,66.2,84.8,144.4,95.3,228.2c2.9,23.4,2.9,82.1,0,104.9
	c-10.6,81.1-39.7,153.6-88.4,218.7c-18.2,24.5-62.7,69-87.3,87.3c-73.5,54.8-155,84.8-248.4,90.9C508,950.4,465.7,948.9,446.3,946.6
	z M506.1,688.3c2.7-1.7,44.9-47.6,93.4-101.7l88.4-98.4v-8.6c0-7.1-1.2-9.8-7.3-16.7c-4-4.4-42.2-46.8-84.8-94.4
	c-95.9-106.8-90-100.7-98.4-100.7c-9.6,0-15.7,3.3-19.6,10.6c-6.9,12.7-7.3,12.1,80.8,109.9c72.1,80.2,81.3,91.1,79,94
	c-1.3,1.7-37.8,42.4-80.8,90.1s-79.2,89-80.4,91.5C468.9,680.8,490.4,698.6,506.1,688.3z M342.3,688.6
	c3.7-2.5,162.8-178.6,177.4-196c5.6-6.9,6.7-15.1,3.1-21.9c-3.3-6.1-176.3-197.8-180.9-200.4c-2.3-1.3-7.3-2.3-11.3-2.5
	c-13.4,0-22.4,14.4-17.3,27.8c0.6,1.9,37.8,43.9,82.5,93.6l81.1,90.3l-5.4,5.8c-3.1,3.3-36.8,40.9-75.2,83.6s-73.1,81.3-77.1,85.7
	c-7.9,8.8-9.4,16.9-5,26.5C318.7,690.7,333.7,694.8,342.3,688.6z"/>
</svg>
