<?xml version="1.0" encoding="utf-8"?>
<!-- Generator: Adobe Illustrator 22.0.1, SVG Export Plug-In . SVG Version: 6.00 Build 0)  -->
<svg version="1.1" id="Слой_1" xmlns="http://www.w3.org/2000/svg" xmlns:xlink="http://www.w3.org/1999/xlink" x="0px" y="0px"
	 viewBox="0 0 1000 1000" style="enable-background:new 0 0 1000 1000;" xml:space="preserve">
<path d="M453,11.2C337.5,23.1,234.2,72,153,153.1C75.2,231,28.8,326,12.4,439.7c-3.3,22.6-3.3,98.2,0,120.8
	C28.7,674.3,75.3,769.2,153,847.1c77.7,77.7,173,124.5,286.5,140.6c22.6,3.3,98.2,3.3,120.8,0c94-13.4,178-49.1,247.4-105.3
	c98.8-79.8,161.1-191.6,179.7-321.8c3.3-22.6,3.3-98.2,0-120.8C971.4,326.1,924.6,230.8,847,153.1C771,77.2,678.2,30.8,569,13.9
	C544.9,10.2,477.6,8.5,453,11.2z M553.7,53.4c80.2,9.2,161.1,43.2,226.7,94.9c18,14.2,57.2,53.3,71.3,71.4
	c50.8,64.6,83.1,140.2,94.4,221.9c4.2,30.9,4.2,86.5,0,117C917.9,761.7,761.6,918,558.5,946.2c-30.5,4.2-86.1,4.2-117,0
	c-81.7-11.3-157.3-43.5-221.9-94.4c-18-14.2-57.2-53.3-71.4-71.3c-52.2-66.2-84.8-144.4-95.3-228.2c-2.9-23.4-2.9-82.1,0-104.9
	c10.5-81.1,39.7-153.6,88.4-218.7c18.2-24.6,62.7-69.1,87.3-87.3c73.5-54.8,155-84.8,248.4-90.9C491.9,49.6,534.3,51.1,553.7,53.4z
	 M493.9,311.8c-2.7,1.7-44.9,47.6-93.4,101.6L312,511.8v8.6c0,7.1,1.1,9.8,7.3,16.7c4,4.4,42.2,46.8,84.8,94.4
	c95.9,106.8,90,100.7,98.4,100.7c9.6,0,15.7-3.3,19.6-10.6c6.9-12.7,7.3-12.1-80.7-109.9c-72.1-80.2-81.3-91.1-79-94
	c1.3-1.7,37.8-42.4,80.8-90.2s79.2-89,80.4-91.5C531.1,319.2,509.6,301.4,493.9,311.8z M657.7,311.4c-3.7,2.5-162.8,178.6-177.4,196
	c-5.6,6.9-6.7,15.1-3.1,21.9c3.3,6.1,176.3,197.8,180.9,200.4c2.3,1.3,7.3,2.3,11.3,2.5c13.4,0,22.4-14.4,17.3-27.8
	c-0.6-1.9-37.8-43.9-82.5-93.6L523,520.4l5.4-5.8c3.1-3.3,36.8-40.9,75.2-83.6c38.4-42.8,73.1-81.3,77.1-85.7
	c7.9-8.8,9.4-16.9,5-26.5C681.3,309.3,666.3,305.2,657.7,311.4z"/>
</svg>
