<!-- Generated by IcoMoon.io -->
<svg version="1.1" xmlns="http://www.w3.org/2000/svg" width="1024" height="1024" viewBox="0 0 1024 1024">
<title></title>
<g id="icomoon-ignore">
</g>
<path fill="#000" d="M511.8 154.8c60.4 0 109.4 49 109.4 109.4 0 60.2-49 109.4-109.4 109.4-60.2 0-109.4-49-109.4-109.4 0-60.2 49.2-109.4 109.4-109.4v0 0zM511.8 528.6c145.8 0 264.2-118.6 264.2-264.2 0-145.8-118.4-264.4-264.2-264.4s-264.2 118.6-264.2 264.4c0 145.6 118.4 264.2 264.2 264.2v0zM618.8 744c53.8-12.2 105.6-33.6 153.4-63.6 36.2-22.8 47-70.6 24.2-106.8s-70.6-47.2-106.8-24.4c-108.2 68-247.6 68-355.8 0-36.2-22.8-84-11.8-106.8 24.4s-12 84 24.2 106.8c47.8 30 99.6 51.4 153.4 63.6l-147.8 147.8c-30.2 30.2-30.2 79.2 0 109.4 15.2 15.2 35 22.6 54.8 22.6s39.6-7.6 54.8-22.6l145.2-145.2 145.2 145.2c30.2 30.2 79.2 30.2 109.4 0s30.2-79.2 0-109.4l-147.4-147.8z"></path>
</svg>
