<?xml version="1.0" encoding="utf-8"?>
<!-- Svg Vector Icons : http://www.onlinewebfonts.com/icon -->
<!DOCTYPE svg PUBLIC "-//W3C//DTD SVG 1.1//EN" "http://www.w3.org/Graphics/SVG/1.1/DTD/svg11.dtd">
<svg version="1.1" xmlns="http://www.w3.org/2000/svg" xmlns:xlink="http://www.w3.org/1999/xlink" x="0px" y="0px" viewBox="0 0 1000 1000" enable-background="new 0 0 1000 1000" xml:space="preserve">
<metadata> Svg Vector Icons : http://www.onlinewebfonts.com/icon </metadata>
<g><path d="M389.7,311.7L285.6,412.7C339.8,527.3,454.8,655,588.2,697.9l90-85.5c0,0,213.4,35.5,261.4,57.7c41.6,19.2,55.3,61.8,48.8,114.3c-7,56.4-84.6,180.9-224.5,182.3C624,968,418,867.6,270.4,719.5C122.8,571.4-8.8,383.7,12.2,224.2C33.3,64.8,179.1,36.3,215.6,33.7c36.9-2.6,66.2,7.7,88.4,34C332.6,101.5,389.7,311.7,389.7,311.7L389.7,311.7z M271.5,100.7c-17.4-21.6-47.2-25.2-77-18.5c-26.5,5.9-123,44.1-136.7,146.2C42.6,342,131.5,534.2,291.2,681.2c159.7,147.1,313.4,232.9,445.6,243.2C869,934.7,933.5,823.9,942.9,790.6c9.4-33.3,1.6-66.9-17.4-80.3c-24.2-17.1-232.1-52.5-232.1-52.5l-94.4,88.6c-155.1-48.1-301.2-182.6-363.4-347l103-98.9C338.7,300.4,288.8,122.3,271.5,100.7L271.5,100.7z"/></g>
</svg>