<!-- Generated by IcoMoon.io -->
<svg version="1.1" xmlns="http://www.w3.org/2000/svg" width="1024" height="1024" viewBox="0 0 1024 1024">
<title></title>
<g id="icomoon-ignore">
</g>
<path fill="#000" d="M1024 204.416c-35.17 15.56-75.964 26.879-118.677 31.933 41.198-24.98 73.854-64.275 89.959-111.256-38.046 21.169-82.799 38.375-130.386 47.654-41.364-39.073-95.244-63.568-154.845-63.568-0.507 0-1.013 0.002-1.52 0.005-0.655-0.010-1.519-0.015-2.385-0.015-113.055 0-204.938 90.643-206.943 203.219-0.008 0.721-0.011 1.351-0.011 1.982 0 15.843 1.869 31.25 5.399 46.012-174.188-9.426-327.796-90.069-432.578-213.468-18.564 28.314-29.133 63.629-29.133 101.412 0 0.043 0 0.086 0 0.129 0.248 71.015 37.089 133.379 92.645 169.241-34.258-0.613-66.897-9.964-95.55-25.679l1.113 3.119c1.127 99.544 72.792 182.024 167.297 199.863-15.293 4.753-34.322 7.369-53.962 7.369-0.019 0-0.038 0-0.057 0-0.116 0-0.256 0-0.396 0-13.709 0-27.113-1.304-40.094-3.796 30.173 82.579 106.808 140.781 197.174 141.779-71.124 54.483-161.458 87.299-259.457 87.299-0.498 0-0.995-0.001-1.492-0.003-0.018 0-0.129 0-0.241 0-17.567 0-34.895-1.023-51.928-3.013 93.235 57.715 204.152 91.846 323.041 91.846 0.379 0 0.757 0 1.136-0.001 386.374 0 597.702-310.784 597.702-580.224v-26.368c40.968-29.096 75.522-64.057 103.283-104.086z"></path>
</svg>
