<!-- Generated by IcoMoon.io -->
<svg version="1.1" xmlns="http://www.w3.org/2000/svg" width="1024" height="1024" viewBox="0 0 1024 1024">
<title></title>
<g id="icomoon-ignore">
</g>
<path fill="#000" d="M500.992 799.36h61.184c10.769-1.174 20.347-5.528 27.971-12.089 5.215-7.119 8.386-16.132 8.386-25.885 0-0.24-0.002-0.479-0.006-0.718s-1.28-81.244 36.864-93.148 85.76 78.464 136.96 113.152c38.4 26.368 68.096 20.48 68.096 20.48l136.704-1.92s71.552-4.352 37.632-60.032c-2.816-4.608-19.712-41.216-101.632-116.352-85.76-78.72-74.24-66.048 29.056-202.112 62.976-82.944 88.064-133.504 80.256-155.264s-53.76-15.232-53.76-15.232l-153.6 0.896c-1.226-0.15-2.646-0.236-4.086-0.236-5.74 0-11.161 1.364-15.957 3.785-5.975 4.102-10.893 9.717-14.15 16.3-18.32 46.697-37.407 85.753-59.178 123.049-66.373 111.054-93.765 117.070-104.901 110.030-25.6-16.768-19.584-66.944-19.584-102.4 0-111.616 17.152-158.080-33.28-170.112-18.43-4.605-39.589-7.247-61.364-7.247-3.673 0-7.328 0.075-10.964 0.224-54.519-0.017-100.983-0.017-127.479 12.783-17.536 8.448-30.976 27.392-22.784 28.416 18.12 1.655 34.017 10.039 45.387 22.597 15.797 21.307 15.285 68.923 15.285 68.923s9.088 131.328-21.12 147.712c-20.736 11.264-49.152-11.648-110.336-116.096-18.119-30.941-36.523-67.971-52.54-106.249-5.361-13.134-9.705-18.791-15.094-23.224-6.827-4.651-14.784-8.043-23.353-9.724l-146.197 0.83s-22.016 0-30.080 10.112 0 25.6 0 25.6 113.92 265.088 243.712 398.72c118.912 122.496 254.080 114.432 254.080 114.432z"></path>
</svg>
