<?xml version="1.0" encoding="utf-8"?>
<!-- Generator: Adobe Illustrator 22.0.1, SVG Export Plug-In . SVG Version: 6.00 Build 0)  -->
<svg version="1.1" id="Слой_1" xmlns="http://www.w3.org/2000/svg" xmlns:xlink="http://www.w3.org/1999/xlink" x="0px" y="0px"
	 viewBox="0 0 1024 1024" style="enable-background:new 0 0 1024 1024;" xml:space="preserve">
<path d="M512,1017.7c-68.2,0-134.5-13.4-196.8-39.8c-60.2-25.5-114.3-61.9-160.7-108.4S71.6,769.1,46.1,708.8
	C19.7,646.5,6.3,580.2,6.3,512c0-68.2,13.4-134.5,39.8-196.8c25.5-60.2,61.9-114.3,108.4-160.7S254.9,71.6,315.2,46.1
	C377.5,19.7,443.8,6.3,512,6.3c68.2,0,134.5,13.4,196.8,39.8c60.2,25.5,114.3,61.9,160.7,108.4s82.9,100.5,108.4,160.7
	c26.4,62.4,39.8,128.6,39.8,196.8c0,68.2-13.4,134.5-39.8,196.8c-25.5,60.2-61.9,114.3-108.4,160.7
	c-46.4,46.4-100.5,82.9-160.7,108.4C646.5,1004.3,580.2,1017.7,512,1017.7z M512,91.7C280.2,91.7,91.7,280.2,91.7,512
	S280.2,932.3,512,932.3S932.3,743.8,932.3,512S743.8,91.7,512,91.7z"/>
<path d="M373.1,693.6c-10.9,0-21.8-4.2-30.2-12.5c-16.7-16.7-16.7-43.7,0-60.3l277.8-277.8c16.7-16.7,43.7-16.7,60.3,0
	c16.7,16.7,16.7,43.7,0,60.3L403.3,681.1C394.9,689.4,384,693.6,373.1,693.6z"/>
<path d="M650.9,693.6c-10.9,0-21.8-4.2-30.2-12.5L342.9,403.3c-16.7-16.7-16.7-43.7,0-60.3c16.7-16.7,43.7-16.7,60.3,0l277.8,277.8
	c16.7,16.7,16.7,43.7,0,60.3C672.7,689.4,661.8,693.6,650.9,693.6z"/>
</svg>
