<?xml version="1.0" encoding="utf-8"?>
<!-- Generator: Adobe Illustrator 22.0.1, SVG Export Plug-In . SVG Version: 6.00 Build 0)  -->
<svg version="1.1" id="Слой_1" xmlns="http://www.w3.org/2000/svg" xmlns:xlink="http://www.w3.org/1999/xlink" x="0px" y="0px"
	 viewBox="0 0 1024 1024" style="enable-background:new 0 0 1024 1024;" xml:space="preserve">
<path d="M572.3,512L998.2,86.2c16.7-16.7,16.7-43.7,0-60.3c-16.7-16.7-43.7-16.7-60.3,0L512,451.7L86.2,25.8
	c-16.7-16.7-43.7-16.7-60.3,0c-16.7,16.7-16.7,43.7,0,60.3L451.7,512L25.8,937.8c-16.7,16.7-16.7,43.7,0,60.3
	c8.3,8.3,19.3,12.5,30.2,12.5s21.8-4.2,30.2-12.5L512,572.3l425.8,425.8c8.3,8.3,19.3,12.5,30.2,12.5s21.8-4.2,30.2-12.5
	c16.7-16.7,16.7-43.7,0-60.3L572.3,512z"/>
</svg>
