<?xml version="1.0" encoding="utf-8"?>
<!-- Generator: Adobe Illustrator 22.0.1, SVG Export Plug-In . SVG Version: 6.00 Build 0)  -->
<svg version="1.1" id="Слой_1" xmlns="http://www.w3.org/2000/svg" xmlns:xlink="http://www.w3.org/1999/xlink" x="0px" y="0px"
	 viewBox="0 0 1024 1024" style="enable-background:new 0 0 1024 1024;" xml:space="preserve">
<path d="M1024,493.6c0-79-7.2-158.1-21.5-235.1c-1-5.5-3.1-10.6-5.9-15.1c-7.8-19.6-19.4-37.6-34.1-52.8c-19.5-20.2-44-35-70.8-42.8
	c-0.5-0.2-1.1-0.3-1.6-0.4l-0.8-0.2h-0.1C812.9,128.5,542.6,128,512,128s-301.4,0.6-378,21.1c-0.3,0.1-0.6,0.2-0.8,0.2
	c-27.1,7.8-51.8,22.6-71.4,42.7s-33.7,45.1-40.7,72.2c-0.1,0.5-0.3,1-0.4,1.5l-0.2,0.8c-0.1,0.4-0.2,0.8-0.2,1.2
	C7,338.2,0,416.8,0,495.2c0,2,0,4.1,0,6.1c0,2.3,0,5,0,7.8c0,79,7.2,158.1,21.5,235.1c1.2,6.5,3.8,12.3,7.4,17.3
	c8.2,18.3,19.6,35.1,33.8,49.2c19.4,19.3,43.6,33.5,69.9,40.9c0.5,0.1,1.1,0.3,1.6,0.4l0.3,0.1C212,872.4,481.5,873,512,873
	c30.6,0,301.4-0.6,378-21.1c0.3-0.1,0.6-0.2,0.8-0.2c27.1-7.8,51.8-22.6,71.4-42.7c19.6-20.1,33.7-45.1,40.7-72.2
	c0.1-0.5,0.3-1,0.4-1.6l0.2-0.8c0.1-0.4,0.2-0.8,0.2-1.1c13.3-70.5,20.4-149.1,20.4-227.5c0-1.5,0-2.9,0-4.4
	C1024,499.1,1024,496.3,1024,493.6z M938.7,505.8c0,72.8-6.5,145.6-18.7,210.7c-6.8,25.3-26.9,45.5-52.5,53.1
	c-50.5,13.2-240.1,18-355.5,18c-115.7,0-306-4.8-355.9-18.2c-0.3-0.1-0.7-0.2-1-0.3c-24.9-7.3-44.2-26.6-51.7-52
	c-12-68.3-18-138.2-18-208c0-2.3,0-4.6,0-6.6c0-0.3,0-0.6,0-0.9v-0.3c0-0.1,0-0.2,0-0.3c0-1.9,0-3.8,0-5.6
	c0-72.8,6.5-145.6,18.7-210.7c6.8-25.3,26.9-45.6,52.5-53.1c50.5-13.2,240.1-18.1,355.5-18.1c80.1,0,300.2,3,356.6,16.7
	c25.2,7.6,44.9,28.3,51.7,54.2c0.1,0.5,0.2,0.9,0.4,1.4c12,68.3,18,138.2,18,208c0,2.4,0,4.7,0,6.8c0,0.3,0,0.6,0,0.9l0,0v0.1
	C938.7,502.8,938.7,504.3,938.7,505.8z M682.4,464.2L437.1,324.7c-13.2-7.5-29.4-7.4-42.5,0.2s-21.2,21.7-21.2,36.9v279
	c0,15.2,8.1,29.2,21.2,36.9c6.6,3.9,14,5.8,21.5,5.8c7.3,0,14.6-1.9,21.1-5.6l245.3-139.5c13.3-7.6,21.6-21.7,21.6-37.1
	S695.8,471.8,682.4,464.2z M458.7,567.5V435.2L575,501.3L458.7,567.5z"/>
</svg>
