<?xml version="1.0" encoding="utf-8"?>
<!-- Generator: Adobe Illustrator 22.0.1, SVG Export Plug-In . SVG Version: 6.00 Build 0)  -->
<svg version="1.1" id="Слой_1" xmlns="http://www.w3.org/2000/svg" xmlns:xlink="http://www.w3.org/1999/xlink" x="0px" y="0px"
	 viewBox="0 0 1024 1024" style="enable-background:new 0 0 1024 1024;" xml:space="preserve">
<path d="M997.2,936.8L806.3,746c27.6-33.4,50.1-70.4,67.1-110.5c23.3-55.2,35.2-113.7,35.2-174c0-60.3-11.8-118.9-35.2-174
	c-22.5-53.2-54.8-101.1-95.8-142.1c-41-41-88.9-73.3-142.1-95.8c-55.2-23.3-113.7-35.2-174-35.2c-60.3,0-118.9,11.8-174,35.2
	c-53.2,22.5-101.1,54.8-142.1,95.8c-41,41-73.3,88.9-95.8,142.1c-23.3,55.1-35.2,113.7-35.2,174c0,60.3,11.8,118.9,35.2,174
	c22.5,53.2,54.8,101.1,95.8,142.1c41,41,88.9,73.3,142.1,95.8c55.1,23.3,113.7,35.2,174,35.2c60.3,0,118.9-11.8,174-35.2
	c40.1-17,77.1-39.4,110.5-67.1l190.8,190.8c8.3,8.3,19.2,12.5,30.2,12.5c10.9,0,21.8-4.2,30.2-12.5
	C1013.8,980.5,1013.8,953.5,997.2,936.8z M461.4,823.2C262,823.2,99.7,660.9,99.7,461.4S262,99.7,461.4,99.7S823.2,262,823.2,461.4
	c0,98-39.2,187-102.7,252.2c-1.3,1-2.5,2.1-3.6,3.2c-1.2,1.2-2.2,2.4-3.2,3.6C648.5,784.1,559.4,823.2,461.4,823.2z"/>
<path d="M613.1,418.8H309.8c-23.6,0-42.7,19.1-42.7,42.7s19.1,42.7,42.7,42.7h303.3c23.6,0,42.7-19.1,42.7-42.7
	S636.7,418.8,613.1,418.8z"/>
</svg>
